<?xml version="1.0" encoding="UTF-8" standalone="no" ?>
<!DOCTYPE svg PUBLIC "-//W3C//DTD SVG 1.1//EN" "http://www.w3.org/Graphics/SVG/1.1/DTD/svg11.dtd">
<svg xmlns="http://www.w3.org/2000/svg" xmlns:xlink="http://www.w3.org/1999/xlink" version="1.1" width="1080" height="1080" viewBox="0 0 1080 1080" xml:space="preserve">
<desc>Created with Fabric.js 5.2.4</desc>
<defs>
</defs>
<g transform="matrix(1 0 0 1 540 540)" id="e2479f4c-9bad-43c3-b720-06696c86db2f"  >
<rect style="stroke: none; stroke-width: 1; stroke-dasharray: none; stroke-linecap: butt; stroke-dashoffset: 0; stroke-linejoin: miter; stroke-miterlimit: 4; fill: rgb(255,255,255); fill-rule: nonzero; opacity: 1; visibility: hidden;" vector-effect="non-scaling-stroke"  x="-540" y="-540" rx="0" ry="0" width="1080" height="1080" />
</g>
<g transform="matrix(1 0 0 1 540 540)" id="3383d4c1-a320-470c-a783-da07d7fd296a"  >
</g>
<g transform="matrix(1 0 0 1 540 540)"  >
<g style="" vector-effect="non-scaling-stroke"   >
		<g transform="matrix(1 0 0 1 0 0)"  >
<rect style="stroke: none; stroke-width: 1; stroke-dasharray: none; stroke-linecap: butt; stroke-dashoffset: 0; stroke-linejoin: miter; stroke-miterlimit: 4; fill: rgb(136,136,136); fill-rule: nonzero; opacity: 1; visibility: hidden;" vector-effect="non-scaling-stroke"  x="-540" y="-540" rx="0" ry="0" width="1080" height="1080" />
</g>
		<g transform="matrix(1 0 0 1 0 0)"  >
<rect style="stroke: none; stroke-width: 1; stroke-dasharray: none; stroke-linecap: butt; stroke-dashoffset: 0; stroke-linejoin: miter; stroke-miterlimit: 4; fill: rgb(136,136,136); fill-rule: nonzero; opacity: 1; visibility: hidden;" vector-effect="non-scaling-stroke"  x="-540" y="-540" rx="0" ry="0" width="1080" height="1080" />
</g>
		<g transform="matrix(41.55 0 0 41.55 -10.95 -12.31)"  >
<path style="stroke: rgb(0,0,0); stroke-width: 0; stroke-dasharray: none; stroke-linecap: butt; stroke-dashoffset: 0; stroke-linejoin: miter; stroke-miterlimit: 4; fill: rgb(136,136,136); fill-rule: nonzero; opacity: 1;" vector-effect="non-scaling-stroke"  transform=" translate(-12, -12)" d="M 22.394 6 C 22.226999999999997 5.71 21.996 5.457 21.741999999999997 5.3100000000000005 L 12.926 0.22 C 12.417 -0.07399999999999998 11.586 -0.07399999999999998 11.078 0.22 L 2.26 5.31 C 1.7519999999999998 5.603 1.3369999999999997 6.3229999999999995 1.3369999999999997 6.91 L 1.3369999999999997 17.09 C 1.3369999999999997 17.384 1.4409999999999998 17.71 1.6079999999999997 18 C 1.7749999999999997 18.29 2.006 18.543 2.26 18.69 L 11.076 23.78 C 11.584 24.073 12.416 24.073 12.924000000000001 23.78 L 21.740000000000002 18.69 C 21.994000000000003 18.543000000000003 22.225 18.290000000000003 22.392000000000003 18 C 22.559000000000005 17.71 22.662000000000003 17.384 22.662000000000003 17.09 L 22.662000000000003 6.91 C 22.665000000000003 6.6160000000000005 22.562 6.29 22.394000000000002 6 z M 12 19.11 C 8.08 19.11 4.891 15.92 4.891 12 C 4.891 8.08 8.081 4.89 12.001000000000001 4.89 C 14.538964356430634 4.894822160244717 16.883216722351975 6.2478320134153655 18.157 8.443 L 15.081 10.222999999999999 C 14.444560206085239 9.12352781476224 13.271389040889499 8.445526297214053 12.001 8.442999999999998 C 10.03720873848357 8.444654184169254 8.445654184169253 10.036208738483571 8.444 12 C 8.446755255088426 13.962620220081615 10.037379082616384 15.55279674057146 11.999999999999998 15.555 C 13.269812767516916 15.552274188163508 14.442605244371343 14.875253076524816 15.079999999999998 13.777 L 18.158 15.556999999999999 C 16.883558441884496 17.752484602555754 14.538569182914458 19.10548019156526 12 19.11 z M 19.11 12.395 L 18.32 12.395 L 18.32 13.184999999999999 L 17.53 13.184999999999999 L 17.53 12.395 L 16.740000000000002 12.395 L 16.740000000000002 11.605 L 17.53 11.605 L 17.53 10.815000000000001 L 18.32 10.815000000000001 L 18.32 11.605 L 19.11 11.605 z M 22.072 12.395 L 21.282 12.395 L 21.282 13.184999999999999 L 20.492 13.184999999999999 L 20.492 12.395 L 19.702 12.395 L 19.702 11.605 L 20.492 11.605 L 20.492 10.815000000000001 L 21.282 10.815000000000001 L 21.282 11.605 L 22.072 11.605 z" stroke-linecap="round" />
</g>
		<g transform="matrix(3.43 0 0 1.93 296.5 0)"  >
<rect style="stroke: rgb(0,0,0); stroke-width: 0; stroke-dasharray: none; stroke-linecap: butt; stroke-dashoffset: 0; stroke-linejoin: miter; stroke-miterlimit: 4; fill: rgb(136,136,136); fill-rule: nonzero; opacity: 1;" vector-effect="non-scaling-stroke"  x="-33.085" y="-33.085" rx="0" ry="0" width="66.17" height="66.17" />
</g>
</g>
</g>
<g transform="matrix(NaN NaN NaN NaN 0 0)"  >
<g style=""   >
</g>
</g>
<g transform="matrix(NaN NaN NaN NaN 0 0)"  >
<g style=""   >
</g>
</g>
</svg>