<svg xml:space="preserve" viewBox="270 403.92 565.9200000000001 276.48" version="1.1" xmlns:xlink="http://www.w3.org/1999/xlink" xmlns="http://www.w3.org/2000/svg" style="max-height: 500px" width="565.9200000000001" height="276.48">
<desc>Created with Fabric.js 5.2.4</desc>
<defs>
</defs>
<g id="39bdf5da-7f7b-40ca-9aa4-a010b4cf44ab" transform="matrix(1 0 0 1 540 540)">
</g>
<g id="b88ddad4-0114-4468-9e79-c14e2509c3c5" transform="matrix(1 0 0 1 540 540)">
<rect height="1080" width="1080" ry="0" rx="0" y="-540" x="-540" style="stroke: none; stroke-width: 1; stroke-dasharray: none; stroke-linecap: butt; stroke-dashoffset: 0; stroke-linejoin: miter; stroke-miterlimit: 4; fill: rgb(255,255,255); fill-rule: nonzero; opacity: 1; visibility: hidden;"/>
</g>
<g transform="matrix(1 0 0 1 540 540)">
<rect height="1080" width="1080" ry="0" rx="0" y="-540" x="-540" style="stroke: none; stroke-width: 1; stroke-dasharray: none; stroke-linecap: butt; stroke-dashoffset: 0; stroke-linejoin: miter; stroke-miterlimit: 4; fill: rgb(255,255,255); fill-rule: nonzero; opacity: 1; visibility: hidden;"/>
</g>
<g transform="matrix(1 0 0 1 540 540)">
<rect height="1080" width="1080" ry="0" rx="0" y="-540" x="-540" style="stroke: none; stroke-width: 1; stroke-dasharray: none; stroke-linecap: butt; stroke-dashoffset: 0; stroke-linejoin: miter; stroke-miterlimit: 4; fill: rgb(255,255,255); fill-rule: nonzero; opacity: 1; visibility: hidden;"/>
</g>
<g transform="matrix(1 0 0 1 745.99 520.72)">
<path stroke-linecap="round" d="M 0 0 C 2.25726011 1.89121793 3.68646424 3.37292849 5 6 C 6.65610017 24.80856618 0.8651821 42.72803933 -3.75488281 60.75854492 C -8.85437496 79.17096148 -8.85437496 79.17096148 -11 98 C -10.52691406 97.14019531 -10.05382812 96.28039062 -9.56640625 95.39453125 C 12.41505834 55.90899494 12.41505834 55.90899494 30 50 C 34.45068415 49.43354929 36.39610207 49.62837051 40.25 52 C 45.64000348 57.09382012 46.53415998 64.92583776 47.5 71.9375 C 47.7503559 73.61081892 48.00167897 75.28399339 48.25390625 76.95703125 C 48.37781738 77.79572754 48.50172852 78.63442383 48.62939453 79.49853516 C 50.35637165 91.15506189 52.01595565 101.4883391 58.25 111.6875 C 60.12414916 115.23499662 60.80451928 117.06679464 60 121 C 57.75970552 123.24029448 56.04440385 123.8828706 52.91015625 124.234375 C 49.2819831 124.15995094 46.86865242 123.67487611 43.96875 121.421875 C 35.32953553 112.12373739 35.02693342 100.67456674 33.77050781 88.68505859 C 33.54389729 86.55711882 33.30360691 84.4310259 33.0625 82.3046875 C 32.86333984 80.4172583 32.86333984 80.4172583 32.66015625 78.49169922 C 31.97600849 74.87310406 30.8005746 72.19454805 29 69 C 15.05236919 73.88167078 5.84849904 95.71881174 -1.1875 107.875 C -11.74997489 126.09526918 -11.74997489 126.09526918 -18 130 C -22.23121733 130.61544979 -24.29117115 130.4134835 -28 128.25 C -32.93361771 120.23287122 -28.0374668 107.20769003 -26.3326416 98.2828064 C -22.55082852 78.38541576 -19.6922957 58.39088966 -16.98495483 38.32299805 C -16.33698103 33.54672488 -15.67047904 28.77315695 -15 24 C -14.81812134 22.67527679 -14.81812134 22.67527679 -14.63256836 21.3237915 C -14.28705601 18.84464112 -13.92050246 16.3695804 -13.546875 13.89453125 C -13.44981262 13.17722336 -13.35275024 12.45991547 -13.25274658 11.72087097 C -12.50301871 6.96624544 -10.97565803 3.7689997 -8 0 C -5.02898609 -1.48550695 -3.16565278 -0.82306972 0 0 Z" transform="translate(-15.09, -64.71)" style="stroke: none; stroke-width: 1; stroke-dasharray: none; stroke-linecap: butt; stroke-dashoffset: 0; stroke-linejoin: miter; stroke-miterlimit: 4; fill: rgb(136,136,136); fill-rule: nonzero; opacity: 1;"/>
</g>
<g transform="matrix(1 0 0 1 351.42 511.35)">
<path stroke-linecap="round" d="M 0 0 C 1.63195312 -0.01546875 1.63195312 -0.01546875 3.296875 -0.03125 C 6.88580088 0.61437688 8.08502084 1.60816932 10.25 4.5 C 10.5625 7.8125 10.5625 7.8125 9.25 11.5 C 6.58992995 14.27177903 3.3846336 16.29891582 0.25 18.5 C -1.76119867 20.02669938 -3.75634599 21.57317469 -5.75219727 23.11987305 C -11.26345534 27.3886198 -16.80653446 31.58365623 -22.52734375 35.56811523 C -31.07440206 41.52604141 -37.74748442 48.08805128 -44.25 56.1875 C -44.67692139 56.71504883 -45.10384277 57.24259766 -45.54370117 57.78613281 C -53.31284517 67.72480115 -59.16472397 78.77705204 -64.4375 90.1875 C -64.73136597 90.82051025 -65.02523193 91.45352051 -65.32800293 92.10571289 C -78.12865173 119.78084905 -89.84334468 149.49735858 -96.95458984 179.17993164 C -97.85701896 181.81215505 -98.81557604 183.49634702 -100.75 185.5 C -104.57504947 185.86429043 -107.44216882 185.8441661 -111.125 184.875 C -113.67927838 182.71368752 -114.04077747 180.75060325 -114.75 177.5 C -115.35327564 169.40469315 -113.36484202 162.78956626 -110.875 155.125 C -110.46508727 153.84144214 -110.05534101 152.5578311 -109.64575195 151.27416992 C -98.30867517 116.03748724 -84.3948564 81.1131839 -61.75 51.5 C -61.32396484 50.93265137 -60.89792969 50.36530273 -60.45898438 49.78076172 C -51.39736697 37.72881056 -41.51912555 25.99965253 -29.75 16.5 C -28.57011878 15.51976437 -27.3904529 14.53926953 -26.2109375 13.55859375 C -24.89156361 12.47541821 -23.57124086 11.39339746 -22.25 10.3125 C -21.6327002 9.80058105 -21.01540039 9.28866211 -20.37939453 8.76123047 C -14.10052948 3.69334864 -8.30902423 -0.07951219 0 0 Z" transform="translate(52.22, -92.84)" style="stroke: none; stroke-width: 1; stroke-dasharray: none; stroke-linecap: butt; stroke-dashoffset: 0; stroke-linejoin: miter; stroke-miterlimit: 4; fill: rgb(136,136,136); fill-rule: nonzero; opacity: 1;"/>
</g>
<g transform="matrix(1 0 0 1 521.85 542.3)">
<path stroke-linecap="round" d="M 0 0 C 2.3125 1.875 2.3125 1.875 4.1875 4.9375 C 6.87293154 8.64971419 8.95093881 8.88747671 13.3125 9.875 C 16.3696948 15.98938961 13.96459767 24.57270901 12.875 31.0625 C 8.84073767 52.69554751 8.84073767 52.69554751 15.3125 72.875 C 16.67375 74.1125 16.67375 74.1125 18.0625 75.375 C 20.3125 77.875 20.3125 77.875 20.4375 80.4375 C 18.92219626 83.7206581 17.40122315 84.99490765 14.3125 86.875 C 10.47797052 87.90210611 8.31334126 88.29395681 4.625 86.75 C -1.11708009 82.09425939 -3.30080579 77.01390725 -4.6875 69.875 C -4.90194311 66.52147478 -4.88015386 63.22860427 -4.6875 59.875 C -5.3475 59.875 -6.0075 59.875 -6.6875 59.875 C -6.9040625 60.41382813 -7.120625 60.95265625 -7.34375 61.5078125 C -9.16224205 64.71131884 -11.5983931 67.16897018 -14.1875 69.75 C -14.98837036 70.54845337 -14.98837036 70.54845337 -15.80541992 71.36303711 C -20.32922875 75.74978119 -25.03996634 79.05123317 -30.6875 81.875 C -31.821875 82.49375 -32.95625 83.1125 -34.125 83.75 C -39.89872193 85.57328061 -45.85747569 85.98240082 -51.5625 83.75 C -56.03287272 79.80555348 -59.46621926 76.10910309 -59.890625 69.90625 C -60.19453038 47.01204502 -48.27438756 27.9489778 -32.6875 11.875 C -24.62504124 3.78104726 -11.86539481 -4.96690945 0 0 Z M -23.5625 22.25 C -33.91837633 32.95264844 -44.28228024 48.5719949 -44.6875 63.875 C -43.67511323 67.15836288 -43.67511323 67.15836288 -41.6875 69.875 C -35.24720914 70.539328 -32.33014435 67.9373111 -27.421875 64.13671875 C -16.38138223 55.00465402 -5.65057472 42.30268156 -2.6875 27.875 C -2.57416942 26.37798215 -2.51285314 24.8762465 -2.5 23.375 C -2.48582031 22.6221875 -2.47164062 21.869375 -2.45703125 21.09375 C -2.72073502 18.55504255 -3.27245458 16.99756813 -4.6875 14.875 C -13.08170826 12.2415229 -17.76410893 16.81008751 -23.5625 22.25 Z" transform="translate(19.73, -43.16)" style="stroke: none; stroke-width: 1; stroke-dasharray: none; stroke-linecap: butt; stroke-dashoffset: 0; stroke-linejoin: miter; stroke-miterlimit: 4; fill: rgb(136,136,136); fill-rule: nonzero; opacity: 1;"/>
</g>
<g transform="matrix(1 0 0 1 437.31 539.23)">
<path stroke-linecap="round" d="M 0 0 C 5.15861293 4.79310734 7.96843632 11.00778886 8.9453125 17.94140625 C 9.13400525 24.53866392 9.05368886 29.34551939 4.42578125 34.25390625 C 3.42578125 35.25390625 3.42578125 35.25390625 1.11328125 35.56640625 C -2.50966236 35.14513374 -3.28354232 34.07148291 -5.57421875 31.25390625 C -6.6269314 28.64982759 -7.52040148 26.17824169 -8.32421875 23.50390625 C -8.54464844 22.80652344 -8.76507813 22.10914062 -8.9921875 21.390625 C -9.53057617 19.68182617 -10.05392932 17.96830257 -10.57421875 16.25390625 C -14.46647343 15.21110082 -15.20826446 15.05737524 -18.94921875 17.06640625 C -31.80536005 27.2291443 -41.67255923 49.02224964 -44.35546875 64.8359375 C -44.83796911 70.16928964 -44.96589344 75.26579955 -41.82421875 79.75390625 C -36.88467552 83.04693507 -32.47864396 84.01454074 -26.57421875 83.25390625 C -16.0694872 80.86214331 -7.18829703 76.38470209 1.67578125 70.37890625 C 5.43200764 67.94977638 8.01781338 67.79474293 12.42578125 68.25390625 C 13.41165543 71.63404629 14.00242756 73.88437126 12.61328125 77.18359375 C 5.04011908 88.40810196 -10.79667921 96.67334822 -23.69921875 99.62890625 C -34.38891981 101.30945893 -43.76595971 100.74227076 -52.88671875 94.56640625 C -57.93016373 90.53767828 -60.19426391 85.44727499 -61.57421875 79.25390625 C -63.21584509 53.06862057 -53.03436596 31.28013083 -35.94921875 11.81640625 C -26.61758636 1.83786694 -13.74480405 -9.32310685 0 0 Z" transform="translate(24.16, -48.47)" style="stroke: none; stroke-width: 1; stroke-dasharray: none; stroke-linecap: butt; stroke-dashoffset: 0; stroke-linejoin: miter; stroke-miterlimit: 4; fill: rgb(136,136,136); fill-rule: nonzero; opacity: 1;"/>
</g>
<g transform="matrix(1 0 0 1 599.22 528.87)">
<path stroke-linecap="round" d="M 0 0 C 3.0625 0.5625 3.0625 0.5625 6 2.4375 C 8.52977128 6.27048679 8.47234366 7.89710606 7.79296875 12.31640625 C 6.18116036 19.47904141 4.14049961 26.52337216 2.0625 33.5625 C 3.06667969 33.418125 4.07085937 33.27375 5.10546875 33.125 C 29.61664614 29.7404099 29.61664614 29.7404099 35.0625 33.5625 C 36.0625 36.9375 36.0625 36.9375 36.0625 40.5625 C 33.89196501 43.50822605 32.54067177 44.40310941 29.0625 45.5625 C 26.9744029 45.84770438 24.88080882 46.09340101 22.78515625 46.31640625 C 21.54958984 46.44853516 20.31402344 46.58066406 19.04101562 46.71679688 C 17.74873047 46.85150391 16.45644531 46.98621094 15.125 47.125 C 13.83658203 47.26357422 12.54816406 47.40214844 11.22070312 47.54492188 C 1.60133159 48.5625 1.60133159 48.5625 -2.9375 48.5625 C -4.10960296 53.75664155 -5.26354649 58.95432701 -6.40283203 64.15576172 C -6.87617116 66.2864362 -7.36983441 68.41092694 -7.87109375 70.53515625 C -9.86219731 79.44272483 -11.0498451 88.44563234 -9.9375 97.5625 C -8.81396629 99.58917694 -8.81396629 99.58917694 -6.9375 100.5625 C -1.48841122 101.47625313 2.81400525 99.37060778 7.1875 96.3125 C 9.5120139 94.57091373 11.78688178 92.78691641 14.0390625 90.953125 C 17.1137367 88.54214699 18.51235179 87.53249192 22.5 87.75 C 23.345625 88.018125 24.19125 88.28625 25.0625 88.5625 C 26.1634345 92.32402622 26.20925253 94.19212456 24.75 97.875 C 18.74868979 107.14414693 9.44795302 113.07555956 -0.9921875 116.171875 C -7.54611909 117.48792552 -14.10459059 116.95017228 -19.9375 113.5625 C -24.81113857 108.90075875 -26.68294225 104.60328098 -27.10571289 97.89233398 C -27.26509035 88.86499481 -25.88198694 80.47079384 -24.0625 71.6875 C -23.78929658 70.31271181 -23.51715662 68.93771184 -23.24609375 67.5625 C -22.03113394 61.48294967 -20.69621156 55.50798796 -18.9375 49.5625 C -19.9275 49.81 -19.9275 49.81 -20.9375 50.0625 C -25.88898176 50.88774696 -30.16822524 51.37021239 -34.8125 49.25 C -37.73405515 46.9299415 -38.84757867 45.28187063 -39.3125 41.5625 C -38.9375 38.5625 -38.9375 38.5625 -37.5234375 36.91796875 C -33.55153495 34.83601983 -29.61104297 34.98934565 -25.1875 34.875 C -24.29933594 34.84083984 -23.41117187 34.80667969 -22.49609375 34.77148438 C -20.31002197 34.68921286 -18.12434049 34.61999828 -15.9375 34.5625 C -15.18513329 32.18822802 -14.4354995 29.81314857 -13.6875 27.4375 C -13.46006104 26.71916992 -13.23262207 26.00083984 -12.99829102 25.26074219 C -11.87968227 21.69779518 -10.80290029 18.13602349 -9.85546875 14.5234375 C -9.53191406 13.29882812 -9.20835937 12.07421875 -8.875 10.8125 C -8.59527344 9.70390625 -8.31554687 8.5953125 -8.02734375 7.453125 C -6.40776254 3.15746157 -4.56679682 0.87449301 0 0 Z" transform="translate(1.63, -58.42)" style="stroke: none; stroke-width: 1; stroke-dasharray: none; stroke-linecap: butt; stroke-dashoffset: 0; stroke-linejoin: miter; stroke-miterlimit: 4; fill: rgb(136,136,136); fill-rule: nonzero; opacity: 1;"/>
</g>
<g transform="matrix(1 0 0 1 663.89 542.34)">
<path stroke-linecap="round" d="M 0 0 C 4.77700555 4.44372609 8.39274203 9.83726982 8.92578125 16.4609375 C 8.95027344 17.58757812 8.97476563 18.71421875 9 19.875 C 9.05607422 21.55722656 9.05607422 21.55722656 9.11328125 23.2734375 C 8.60123492 27.15371518 7.38812719 28.72909627 4.6875 31.5 C 2.75 32.625 2.75 32.625 0.6875 32.5 C -4.6319801 28.90935094 -5.62873207 24.06999863 -7.22265625 18.046875 C -8.04831016 15.39285876 -8.04831016 15.39285876 -10.1953125 14.46875 C -13.8914453 14.52330547 -15.6445628 16.79892286 -18.234375 19.23046875 C -29.19989008 31.20596549 -37.69403523 48.96937124 -37.61328125 65.30859375 C -37.26836761 67.821536 -36.72422987 69.38912772 -35.3125 71.5 C -30.56007854 74.75494074 -24.80039351 74.1090536 -19.3125 73.5 C -10.65748706 71.24171386 -3.47501757 66.98673083 3.8125 61.9765625 C 6.6875 60.5 6.6875 60.5 9.5 60.7109375 C 11.6875 61.5 11.6875 61.5 12.6875 62.5 C 13.37245933 66.60975597 12.83002634 68.2778266 10.5625 71.8125 C 0.30379756 82.72601324 -14.1701606 88.93432539 -28.94140625 89.59765625 C -35.1516193 89.41775437 -40.63513478 88.02008144 -45.6875 84.3125 C -52.03704538 77.50941566 -53.70351612 70.13157086 -53.58203125 61.03125 C -51.81871535 37.92925621 -38.43086408 17.45309481 -21.3125 2.5 C -14.86230835 -2.27835888 -7.38334116 -3.34339977 0 0 Z" transform="translate(20.31, -43.83)" style="stroke: none; stroke-width: 1; stroke-dasharray: none; stroke-linecap: butt; stroke-dashoffset: 0; stroke-linejoin: miter; stroke-miterlimit: 4; fill: rgb(136,136,136); fill-rule: nonzero; opacity: 1;"/>
</g>
<g transform="matrix(1 0 0 1 410.18 626.56)">
<path stroke-linecap="round" d="M 0 0 C 2.0625 1.6875 2.0625 1.6875 3 4 C 3.12070525 8.46609439 0.62367349 11.00709564 -2.17358398 14.18774414 C -15.50323401 27.41404973 -35.45030471 31.21627793 -53.06640625 34.92578125 C -54.27744019 35.18224678 -54.27744019 35.18224678 -55.51293945 35.44389343 C -59.56376274 36.29959234 -63.61659637 37.13634318 -67.67919922 37.93432617 C -81.0818998 40.63334071 -92.80274771 45.1661961 -104.4375 52.5 C -105.54254883 53.17095703 -105.54254883 53.17095703 -106.66992188 53.85546875 C -112.39180618 57.39927997 -118.17669375 61.10785905 -121.8125 66.875 C -124.93832949 69.91152007 -127.54197562 69.51878961 -131.7578125 69.46875 C -134 69 -134 69 -136 66 C -136.5625 63.3125 -136.5625 63.3125 -136 60 C -134.00545553 56.98948444 -131.56406932 54.53045793 -129 52 C -128.39414063 51.37222656 -127.78828125 50.74445313 -127.1640625 50.09765625 C -107.31769394 30.91806292 -78.10295594 22.2608311 -51.48046875 18.09375 C -38.38024686 16.03052492 -28.38273735 11.73711441 -17 5 C -15.41384433 4.0644046 -13.82270206 3.13720907 -12.2265625 2.21875 C -11.16816162 1.6009668 -11.16816162 1.6009668 -10.08837891 0.97070312 C -6.4702145 -0.71106233 -3.9323508 -0.61019237 0 0 Z" transform="translate(66.71, -34.55)" style="stroke: none; stroke-width: 1; stroke-dasharray: none; stroke-linecap: butt; stroke-dashoffset: 0; stroke-linejoin: miter; stroke-miterlimit: 4; fill: rgb(136,136,136); fill-rule: nonzero; opacity: 1;"/>
</g>
<g transform="matrix(1 0 0 1 408.78 474.59)">
<path stroke-linecap="round" d="M 0 0 C 3.26100962 2.85338342 3.94550049 4.22338191 4.25 8.5625 C 3 12 3 12 -0.11328125 13.88671875 C -5.98061519 16.6135959 -12.17409088 18.52236541 -18.30969238 20.54525757 C -45.55869053 29.57028646 -74.8992618 42.45448821 -90.25 68.4375 C -91.33349044 70.64317698 -92.41468094 72.84998738 -93.4921875 75.05859375 C -94.03101562 76.15300781 -94.56984375 77.24742188 -95.125 78.375 C -95.87136719 79.93347656 -95.87136719 79.93347656 -96.6328125 81.5234375 C -98 84 -98 84 -100 85 C -106.18035883 85.44948064 -106.18035883 85.44948064 -108.9375 83.9375 C -110.63209341 80.84735908 -110.74159781 78.3586413 -110 75 C -95.71087775 41.29232699 -61.36973541 16.62698607 -29.03125 2.21875 C -19.37407947 -1.6640299 -10.03555219 -4.05281915 0 0 Z" transform="translate(53.09, -41.58)" style="stroke: none; stroke-width: 1; stroke-dasharray: none; stroke-linecap: butt; stroke-dashoffset: 0; stroke-linejoin: miter; stroke-miterlimit: 4; fill: rgb(136,136,136); fill-rule: nonzero; opacity: 1;"/>
</g>
<g transform="matrix(1 0 0 1 433.66 487.33)">
<path stroke-linecap="round" d="M 0 0 C 2.66077985 2.79381884 3 3.58229429 3 7.5625 C 2 11 2 11 -0.06347656 12.59814453 C -3.61565941 14.29390724 -7.15013468 15.11198399 -10.984375 15.8671875 C -11.75823547 16.02865265 -12.53209595 16.1901178 -13.32940674 16.35647583 C -15.80120687 16.87150914 -18.27523224 17.37443626 -20.75 17.875 C -30.3152072 19.81874221 -39.8188804 21.80856477 -49.19140625 24.5546875 C -50.19315887 24.847491 -50.19315887 24.847491 -51.21514893 25.14620972 C -71.75634103 31.3581155 -94.10354424 43.57215677 -106 62 C -111.41281139 70.10320285 -111.41281139 70.10320285 -115 71 C -117.74232501 70.79934207 -119.47894933 70.32341076 -121.8125 68.875 C -123.84185663 65.67075269 -123.60174854 63.73084098 -123 60 C -112.28247358 40.17056909 -88.48428174 24.99620547 -69 15 C -68.27474121 14.62246582 -67.54948242 14.24493164 -66.80224609 13.85595703 C -48.5899493 4.46837807 -20.30057284 -9.5114572 0 0 Z" transform="translate(60.21, -33.91)" style="stroke: none; stroke-width: 1; stroke-dasharray: none; stroke-linecap: butt; stroke-dashoffset: 0; stroke-linejoin: miter; stroke-miterlimit: 4; fill: rgb(136,136,136); fill-rule: nonzero; opacity: 1;"/>
</g>
<g transform="matrix(1 0 0 1 771.39 458.57)">
<path stroke-linecap="round" d="M 0 0 C 2.125 1.625 2.125 1.625 3.125 3.625 C 3.5322374 11.99992561 -0.26987259 17.52679463 -5.6171875 23.60546875 C -9.06468199 27.19852412 -12.62821494 30.03549692 -16.875 32.625 C -16.24851562 32.81835938 -15.62203125 33.01171875 -14.9765625 33.2109375 C -14.15929687 33.47132812 -13.34203125 33.73171875 -12.5 34 C -11.68789063 34.25523438 -10.87578125 34.51046875 -10.0390625 34.7734375 C -7.875 35.625 -7.875 35.625 -5.875 37.625 C -5.5625 40.125 -5.5625 40.125 -5.875 42.625 C -8.875 44.625 -8.875 44.625 -11.5625 44.375 C -14.63581654 43.67915475 -17.67553679 42.89110165 -20.72265625 42.08984375 C -23.03020367 41.59148051 -25.27306577 41.37673609 -27.625 41.1875 C -31.17554564 40.85636103 -33.27274667 40.22725333 -35.875 37.625 C -35.70703125 35.32421875 -35.70703125 35.32421875 -34.875 32.625 C -32.57421875 30.95703125 -32.57421875 30.95703125 -29.5625 29.4375 C -20.03703436 24.20247707 -10.78706079 18.18756412 -6.875 7.625 C -11.68622847 9.15055966 -11.68622847 9.15055966 -14.875 12.625 C -17.6875 12.9375 -17.6875 12.9375 -20.875 12.625 C -22.875 10.375 -22.875 10.375 -23.875 7.625 C -22.98755747 4.57553305 -22.07467518 3.74013895 -19.30078125 2.140625 C -6.44858653 -3.0841066 -6.44858653 -3.0841066 0 0 Z" transform="translate(16.36, -21.2)" style="stroke: none; stroke-width: 1; stroke-dasharray: none; stroke-linecap: butt; stroke-dashoffset: 0; stroke-linejoin: miter; stroke-miterlimit: 4; fill: rgb(251,43,0); fill-rule: nonzero; opacity: 1;"/>
</g>
<g transform="matrix(1 0 0 1 463.4 542.5)">
<path stroke-linecap="round" d="M 0 0 C 2.77225005 1.08004678 5.28089755 2.34926973 7.87109375 3.80859375 C 10.71775311 5.40167835 12.72370733 6 16 6 C 16.495 7.98 16.495 7.98 17 10 C 15.68 10.33 14.36 10.66 13 11 C 14.32 11.99 15.64 12.98 17 14 C 16.67 14.99 16.34 15.98 16 17 C 15.443125 16.7525 14.88625 16.505 14.3125 16.25 C 11.82858658 15.71411794 11.82858658 15.71411794 9.6875 17.75 C 8.3571875 18.86375 8.3571875 18.86375 7 20 C 1.40224409 23.07327776 -3.63460774 23.94379786 -10 23 C -13.52096803 21.30239041 -15.3427414 20.02875259 -17.4375 16.75 C -18.21357066 12.95587675 -18.18359667 9.70810349 -17 6 C -11.92654291 -0.11416624 -7.68600855 -0.99415688 0 0 Z" transform="translate(0.48, -11.51)" style="stroke: none; stroke-width: 1; stroke-dasharray: none; stroke-linecap: butt; stroke-dashoffset: 0; stroke-linejoin: miter; stroke-miterlimit: 4; fill: rgb(235,33,0); fill-rule: nonzero; opacity: 1;"/>
</g>
<g transform="matrix(1 0 0 1 475.39 542.51)">
<path stroke-linecap="round" d="M 0 0 C 4 1 4 1 7 2 C 7.99 2 8.98 2 10 2 C 10.33 3.32 10.66 4.64 11 6 C 9.68 6.33 8.36 6.66 7 7 C 8.32 7.99 9.64 8.98 11 10 C 10.67 10.99 10.34 11.98 10 13 C 9.401875 12.773125 8.80375 12.54625 8.1875 12.3125 C 7.465625 12.209375 6.74375 12.10625 6 12 C 4.41666667 13.41666667 4.41666667 13.41666667 3 15 C 2.01 15 1.02 15 0 15 C 0 10.05 0 5.1 0 0 Z" transform="translate(-5.5, -7.5)" style="stroke: none; stroke-width: 1; stroke-dasharray: none; stroke-linecap: butt; stroke-dashoffset: 0; stroke-linejoin: miter; stroke-miterlimit: 4; fill: rgb(136,136,136); fill-rule: nonzero; opacity: 1;"/>
</g>
<g transform="matrix(NaN NaN NaN NaN 0 0)">
<g style="">
</g>
</g>
<g transform="matrix(NaN NaN NaN NaN 0 0)">
<g style="">
</g>
</g>
<g transform="matrix(NaN NaN NaN NaN 0 0)">
<g style="">
</g>
</g>
<g transform="matrix(NaN NaN NaN NaN 0 0)">
<g style="">
</g>
</g>
<g transform="matrix(NaN NaN NaN NaN 0 0)">
<g style="">
</g>
</g>
<g transform="matrix(NaN NaN NaN NaN 0 0)">
<g style="">
</g>
</g>
<g transform="matrix(NaN NaN NaN NaN 0 0)">
<g style="">
</g>
</g>
<g transform="matrix(NaN NaN NaN NaN 0 0)">
<g style="">
</g>
</g>
<g transform="matrix(NaN NaN NaN NaN 0 0)">
<g style="">
</g>
</g>
<g transform="matrix(NaN NaN NaN NaN 0 0)">
<g style="">
</g>
</g>
<g transform="matrix(NaN NaN NaN NaN 0 0)">
<g style="">
</g>
</g>
<g transform="matrix(NaN NaN NaN NaN 0 0)">
<g style="">
</g>
</g>
<g transform="matrix(NaN NaN NaN NaN 0 0)">
<g style="">
</g>
</g>
<g transform="matrix(NaN NaN NaN NaN 0 0)">
<g style="">
</g>
</g>
<g transform="matrix(NaN NaN NaN NaN 0 0)">
<g style="">
</g>
</g>
<g transform="matrix(NaN NaN NaN NaN 0 0)">
<g style="">
</g>
</g>
<g transform="matrix(NaN NaN NaN NaN 0 0)">
<g style="">
</g>
</g>
<g transform="matrix(NaN NaN NaN NaN 0 0)">
<g style="">
</g>
</g>
<g transform="matrix(NaN NaN NaN NaN 0 0)">
<g style="">
</g>
</g>
<g transform="matrix(NaN NaN NaN NaN 0 0)">
<g style="">
</g>
</g>
</svg>