<?xml version="1.0" encoding="UTF-8" standalone="no" ?>
<!DOCTYPE svg PUBLIC "-//W3C//DTD SVG 1.1//EN" "http://www.w3.org/Graphics/SVG/1.1/DTD/svg11.dtd">
<svg xmlns="http://www.w3.org/2000/svg" xmlns:xlink="http://www.w3.org/1999/xlink" version="1.1" width="1080" height="1080" viewBox="0 0 1080 1080" xml:space="preserve">
<desc>Created with Fabric.js 5.2.4</desc>
<defs>
</defs>
<g transform="matrix(1 0 0 1 540 540)" id="502a5dbc-8a70-4e0c-ba3d-d764592b8776"  >
</g>
<g transform="matrix(1 0 0 1 540 540)" id="dcb998e5-5ddf-47fe-9840-368c609cde8a"  >
<rect style="stroke: none; stroke-width: 1; stroke-dasharray: none; stroke-linecap: butt; stroke-dashoffset: 0; stroke-linejoin: miter; stroke-miterlimit: 4; fill: rgb(255,255,255); fill-rule: nonzero; opacity: 1; visibility: hidden;" vector-effect="non-scaling-stroke"  x="-540" y="-540" rx="0" ry="0" width="1080" height="1080" />
</g>
<g transform="matrix(0 0 0 0 0 0)"  >
<g style=""   >
</g>
</g>
<g transform="matrix(0 0 0 0 0 0)"  >
<g style=""   >
</g>
</g>
<g transform="matrix(1 0 0 1 540 540)"  >
<rect style="stroke: none; stroke-width: 1; stroke-dasharray: none; stroke-linecap: butt; stroke-dashoffset: 0; stroke-linejoin: miter; stroke-miterlimit: 4; fill: rgb(136,136,136); fill-rule: nonzero; opacity: 1; visibility: hidden;" vector-effect="non-scaling-stroke"  x="-540" y="-540" rx="0" ry="0" width="1080" height="1080" />
</g>
<g transform="matrix(3.65 0 0 3.65 540 517.89)"  >
<path style="stroke: rgb(0,0,0); stroke-width: 0; stroke-dasharray: none; stroke-linecap: butt; stroke-dashoffset: 0; stroke-linejoin: miter; stroke-miterlimit: 4; fill: rgb(136,136,136); fill-rule: nonzero; opacity: 1;" vector-effect="non-scaling-stroke"  transform=" translate(-122.6, -36.05)" d="M 167.2 44.3 L 167.2 0.9 L 176.7 0.9 L 176.7 42.8 C 176.6900744701592 44.74420659575616 176.82377154186048 46.68649080489639 177.1 48.610999999999976 Q 177.981 54.519 180.8 58.3 C 182.8456571436567 61.04771721210772 185.8765308064694 62.89577594028444 189.256 63.456 C 190.52359797642555 63.691778374114165 191.81067938906804 63.80695943705616 193.1 63.8 C 194.78379655622632 63.81463704057669 196.46342981782905 63.630360729501575 198.104 63.251 C 201.14770034683133 62.58968451886369 203.8676892518879 60.89287231340935 205.8 58.45 C 207.04154371980292 56.829786614049915 207.98800286591344 55.003553748074815 208.596 53.055 Q 209.386 50.636 209.731 47.694 C 209.91576424350035 46.06928606240539 210.00558350896904 44.43517645198249 210 42.8 L 210 0.9 L 219.2 0.9 L 219.2 43.9 C 219.21245306780986 46.324211353563605 219.0042611395319 48.74452619822264 218.578 51.130999999999965 C 218.09294355668194 53.88471923121586 217.20756528393528 56.55264561701523 215.95 59.05 Q 212.7 65.4 206.85 68.75 C 204.1997539328269 70.24716804206675 201.29858249112542 71.24822638090404 198.289 71.704 C 196.57254364769122 71.97315674062436 194.83742243050062 72.10557300618757 193.1 72.1 C 190.4037385731945 72.12282079769824 187.71500229542028 71.81212984742453 185.095 71.175 C 180.90480362396352 70.17916884022655 177.08862137130595 68.00122035132921 174.1 64.9 Q 167.988 58.523 167.29 47.281 C 167.22919194205608 46.28850259199424 167.19917751619332 45.294358108696024 167.2 44.30000000000004 Z M 158.7 66 L 151 71.9 L 128.9 41.9 L 107.5 71.7 L 100 66 L 123.5 35.3 L 101 5.9 L 108.9 0 L 129.2 28.4 L 149.3 0.3 L 156.7 5.9 L 134.9 34.8 L 158.7 66 Z M 9.5 70.9 L 0 70.9 L 0 0.9 L 41.5 0.9 L 41.5 9.1 L 9.5 9.1 L 9.5 30.5 L 36.2 30.5 L 36.2 38.3 L 9.5 38.3 L 9.5 70.9 Z M 76.5 70.9 L 67 70.9 L 67 9.3 L 45.5 9.3 L 45.5 0.9 L 98 0.9 L 98 9.3 L 76.5 9.3 L 76.5 70.9 Z M 245.2 70.9 L 235.7 70.9 L 235.7 0.9 L 245.2 0.9 L 245.2 70.9 Z" stroke-linecap="round" />
</g>
<g transform="matrix(NaN NaN NaN NaN 0 0)"  >
<g style=""   >
</g>
</g>
<g transform="matrix(NaN NaN NaN NaN 0 0)"  >
<g style=""   >
</g>
</g>
</svg>