<?xml version="1.0" encoding="UTF-8" standalone="no" ?>
<!DOCTYPE svg PUBLIC "-//W3C//DTD SVG 1.1//EN" "http://www.w3.org/Graphics/SVG/1.1/DTD/svg11.dtd">
<svg xmlns="http://www.w3.org/2000/svg" xmlns:xlink="http://www.w3.org/1999/xlink" version="1.1" width="1080" height="1080" viewBox="0 0 1080 1080" xml:space="preserve">
<desc>Created with Fabric.js 5.2.4</desc>
<defs>
</defs>
<g transform="matrix(1 0 0 1 540 540)" id="8cbf36f5-48df-47a3-9310-b76c9ae74bd7"  >
</g>
<g transform="matrix(1 0 0 1 540 540)" id="fa082070-6019-43fc-a282-d566d039db32"  >
<rect style="stroke: none; stroke-width: 1; stroke-dasharray: none; stroke-linecap: butt; stroke-dashoffset: 0; stroke-linejoin: miter; stroke-miterlimit: 4; fill: rgb(255,255,255); fill-rule: nonzero; opacity: 1; visibility: hidden;" vector-effect="non-scaling-stroke"  x="-540" y="-540" rx="0" ry="0" width="1080" height="1080" />
</g>
<g transform="matrix(34.83 0 0 34.83 539.97 523.01)"  >
<path style="stroke: rgb(0,0,0); stroke-width: 0; stroke-dasharray: none; stroke-linecap: butt; stroke-dashoffset: 0; stroke-linejoin: miter; stroke-miterlimit: 4; fill: rgb(136,136,136); fill-rule: nonzero; opacity: 1;" vector-effect="non-scaling-stroke"  transform=" translate(-12, -12)" d="M 23.546 10.93 L 13.067 0.452 C 12.463000000000001 -0.15099999999999997 11.485 -0.15099999999999997 10.879 0.452 L 8.708 2.627 L 11.468 5.387 C 12.113 5.172 12.847 5.316999999999999 13.357 5.827999999999999 C 13.873 6.342999999999999 14.014999999999999 7.085999999999999 13.795 7.728 L 16.453 10.388 C 17.098 10.165 17.84 10.31 18.352999999999998 10.823 C 19.073999999999998 11.543000000000001 19.073999999999998 12.707 18.352999999999998 13.427 C 17.633999999999997 14.145999999999999 16.471999999999998 14.145999999999999 15.752999999999998 13.427 C 15.213999999999999 12.886 15.078999999999999 12.09 15.348999999999998 11.431 L 12.86 8.955 L 12.86 15.48 C 13.036 15.566 13.202 15.683 13.347999999999999 15.828000000000001 C 14.060999999999998 16.549 14.060999999999998 17.711000000000002 13.347999999999999 18.428 C 12.629 19.149 11.459 19.149 10.738999999999999 18.428 C 10.02 17.709 10.02 16.549 10.738999999999999 15.830000000000002 C 10.921 15.650000000000002 11.126 15.514000000000001 11.344 15.424000000000001 L 11.344 8.835 C 11.126999999999999 8.744000000000002 10.92 8.613000000000001 10.744 8.434000000000001 C 10.199 7.889000000000001 10.068 7.0920000000000005 10.347999999999999 6.425000000000001 L 7.636 3.7 L 0.45 10.881 C -0.14999999999999997 11.486 -0.14999999999999997 12.465 0.45 13.07 L 10.93 23.547 C 11.533999999999999 24.151 12.512 24.151 13.116 23.547 L 23.546 13.117 C 24.151 12.514000000000001 24.151 11.535 23.546 10.930000000000001" stroke-linecap="round" />
</g>
<g transform="matrix(0 0 0 0 0 0)"  >
<g style=""   >
</g>
</g>
<g transform="matrix(0 0 0 0 0 0)"  >
<g style=""   >
</g>
</g>
</svg>