<?xml version="1.0" encoding="UTF-8" standalone="no" ?>
<!DOCTYPE svg PUBLIC "-//W3C//DTD SVG 1.1//EN" "http://www.w3.org/Graphics/SVG/1.1/DTD/svg11.dtd">
<svg xmlns="http://www.w3.org/2000/svg" xmlns:xlink="http://www.w3.org/1999/xlink" version="1.1" width="1080" height="1080" viewBox="0 0 1080 1080" xml:space="preserve">
<desc>Created with Fabric.js 5.2.4</desc>
<defs>
</defs>
<g transform="matrix(1 0 0 1 540 540)" id="95dbee4c-faee-425a-a96a-6aa2a279fd54"  >
<rect style="stroke: none; stroke-width: 1; stroke-dasharray: none; stroke-linecap: butt; stroke-dashoffset: 0; stroke-linejoin: miter; stroke-miterlimit: 4; fill: rgb(255,255,255); fill-rule: nonzero; opacity: 1; visibility: hidden;" vector-effect="non-scaling-stroke"  x="-540" y="-540" rx="0" ry="0" width="1080" height="1080" />
</g>
<g transform="matrix(1 0 0 1 540 540)" id="26c3844c-4f97-487e-b8f4-ca1913cb4c17"  >
</g>
<g transform="matrix(42.53 0 0 42.53 540 540)" id="db0493d2-49cb-4824-9278-43702f39f6c7"  >
<path style="stroke: rgb(0,0,0); stroke-width: 0; stroke-dasharray: none; stroke-linecap: butt; stroke-dashoffset: 0; stroke-linejoin: miter; stroke-miterlimit: 4; fill: rgb(136,136,136); fill-rule: nonzero; opacity: 1;" vector-effect="non-scaling-stroke"  transform=" translate(-12, -12)" d="M 21.038 4.9 L 13.461 0.40200000000000014 C 13.009 0.134 12.505 0 12 0 C 11.495 0 10.991 0.134 10.538 0.403 L 2.961 4.9 C 2.057 5.437 1.5 6.429 1.5 7.503 L 1.5 16.497999999999998 C 1.5 17.570999999999998 2.057 18.563999999999997 2.9619999999999997 19.101 L 10.539 23.598 C 10.991 23.866 11.495 24 12 24 C 12.505 24 13.009 23.866 13.461 23.598 L 21.038 19.101 C 21.942 18.564 22.5 17.572 22.5 16.497999999999998 L 22.5 7.503 C 22.5 6.429 21.943 5.437 21.038 4.9 z M 15.17 18.946 L 15.183 19.592000000000002 C 15.184 19.67 15.133 19.759000000000004 15.072 19.790000000000003 L 14.689 20.01 C 14.628 20.041 14.578 20.003 14.577 19.925 L 14.57 19.29 C 14.242 19.426 13.91 19.459 13.698 19.374 C 13.658000000000001 19.358 13.641 19.299 13.657 19.232 L 13.796 18.648 C 13.806999999999999 18.602 13.831999999999999 18.556 13.865 18.527 C 13.877 18.516000000000002 13.889 18.507 13.901 18.501 C 13.923 18.490000000000002 13.943999999999999 18.487000000000002 13.963 18.495 C 14.191999999999998 18.572000000000003 14.484 18.536 14.764999999999999 18.394000000000002 C 15.121999999999998 18.213 15.360999999999999 17.849 15.357 17.487000000000002 C 15.354 17.159000000000002 15.176 17.022000000000002 14.744 17.019000000000002 C 14.193999999999999 17.020000000000003 13.68 16.912000000000003 13.672 16.102 C 13.665000000000001 15.435 14.012 14.741 14.561 14.302 L 14.554 13.65 C 14.553 13.57 14.602 13.482000000000001 14.665000000000001 13.450000000000001 L 15.035 13.214 C 15.096 13.183 15.146 13.221 15.147 13.301 L 15.153 13.954 C 15.426 13.845 15.664 13.816 15.879000000000001 13.866000000000001 C 15.926000000000002 13.878000000000002 15.946000000000002 13.942000000000002 15.927000000000001 14.017000000000001 L 15.783000000000001 14.595 C 15.772000000000002 14.639000000000001 15.747000000000002 14.683 15.718000000000002 14.711 C 15.706000000000001 14.723 15.693000000000001 14.732000000000001 15.680000000000001 14.739 C 15.661000000000001 14.749 15.642000000000001 14.752 15.623000000000001 14.748000000000001 C 15.525 14.726 15.291 14.675 14.924000000000001 14.861 C 14.539000000000001 15.056000000000001 14.404000000000002 15.391 14.407000000000002 15.639000000000001 C 14.410000000000002 15.936000000000002 14.562000000000001 16.026 15.088000000000001 16.035 C 15.788 16.047 16.091 16.353 16.098000000000003 17.058 C 16.105 17.747 15.736 18.491 15.17 18.946 z M 19.143 17.859 C 19.143 17.919 19.135 17.975 19.085 18.004 L 17.169 19.168000000000003 C 17.119 19.197000000000003 17.079 19.172000000000004 17.079 19.112000000000002 L 17.079 18.618000000000002 C 17.079 18.558000000000003 17.116 18.525000000000002 17.166 18.496000000000002 L 19.053 17.367 C 19.103 17.338 19.143 17.363 19.143 17.423000000000002 L 19.143 17.859 z M 20.459 6.797 L 13.291 11.224 C 12.397 11.747 11.738 12.333 11.738 13.411 L 11.738 22.244 C 11.738 22.889 11.998 23.307 12.398 23.428 C 12.267 23.451 12.134 23.467000000000002 12 23.467000000000002 C 11.58 23.467000000000002 11.167 23.353 10.803 23.137000000000004 L 3.226 18.64 C 2.485 18.2 2.025 17.379 2.025 16.498 L 2.025 7.503 C 2.025 6.622 2.485 5.801 3.226 5.361000000000001 L 10.803 0.8630000000000004 C 11.166 0.6470000000000005 11.58 0.5330000000000004 12 0.5330000000000004 C 12.419 0.5330000000000004 12.833 0.6470000000000004 13.197 0.8630000000000004 L 20.774 5.361000000000001 C 21.398 5.732000000000001 21.82 6.3740000000000006 21.938000000000002 7.093000000000001 C 21.686 6.557 21.12 6.411 20.459 6.797 z" stroke-linecap="round" />
</g>
<g transform="matrix(NaN NaN NaN NaN 0 0)"  >
<g style=""   >
</g>
</g>
<g transform="matrix(NaN NaN NaN NaN 0 0)"  >
<g style=""   >
</g>
</g>
</svg>