<?xml version="1.0" encoding="UTF-8" standalone="no" ?>
<!DOCTYPE svg PUBLIC "-//W3C//DTD SVG 1.1//EN" "http://www.w3.org/Graphics/SVG/1.1/DTD/svg11.dtd">
<svg xmlns="http://www.w3.org/2000/svg" xmlns:xlink="http://www.w3.org/1999/xlink" version="1.1" width="1080" height="1080" viewBox="0 0 1080 1080" xml:space="preserve">
<desc>Created with Fabric.js 5.2.4</desc>
<defs>
</defs>
<g transform="matrix(1 0 0 1 540 540)" id="704eb27c-7604-4220-9892-6c55ab18a0f5"  >
<rect style="stroke: none; stroke-width: 1; stroke-dasharray: none; stroke-linecap: butt; stroke-dashoffset: 0; stroke-linejoin: miter; stroke-miterlimit: 4; fill: rgb(255,255,255); fill-rule: nonzero; opacity: 1; visibility: hidden;" vector-effect="non-scaling-stroke"  x="-540" y="-540" rx="0" ry="0" width="1080" height="1080" />
</g>
<g transform="matrix(1 0 0 1 540 540)" id="b78aac6a-df11-4158-a93d-b9d659cda76e"  >
</g>
<g transform="matrix(39.47 0 0 39.47 540 540)" id="b694a243-42d3-4154-9fb8-a8bd64fa7b84"  >
<path style="stroke: rgb(0,0,0); stroke-width: 0; stroke-dasharray: none; stroke-linecap: butt; stroke-dashoffset: 0; stroke-linejoin: miter; stroke-miterlimit: 4; fill: rgb(136,136,136); fill-rule: nonzero; opacity: 1;" vector-effect="non-scaling-stroke"  transform=" translate(-12, -12)" d="M 19.355 18.538 C 19.999155259012205 17.569162146946667 20.618686904349897 16.584180187674566 21.213000000000005 15.583999999999978 C 21.37676720949079 15.299188021957837 21.352275594934362 14.94366458484843 21.151 14.684 C 20.634999999999998 13.998999999999999 19.647 12.608999999999998 19.109 11.322 C 18.556 10.001 18.473000000000003 7.946999999999999 18.469 6.944999999999999 C 18.469896553886382 6.56490352044125 18.343906851959357 6.195380651660869 18.111 5.895 L 14.913 1.8309999999999995 C 14.90097186561307 2.013614207887633 14.875570436159935 2.1951007367435786 14.837 2.3739999999999997 C 14.731 2.877 14.53 3.3779999999999997 14.301 3.8739999999999997 C 14.167 4.164 14.011000000000001 4.473999999999999 13.855 4.787999999999999 L 13.545 5.414 C 13.029 6.481999999999999 12.548 7.641 12.413 9.004 C 12.289 10.264 12.459 11.734 13.228 13.485 C 13.356 13.495999999999999 13.485 13.51 13.613999999999999 13.529 C 14.84586861470403 13.695032225929264 16.00213199621361 14.218236191404888 16.939999999999994 15.033999999999995 C 17.855999999999998 15.823999999999998 18.683999999999997 16.956 19.354999999999997 18.534 z M 8.199 22.569 C 8.272 22.581 8.345 22.589 8.419 22.589 C 9.199 22.613 10.514000000000001 22.680999999999997 11.579 22.878999999999998 C 12.449 23.038999999999998 14.172 23.519 15.589 23.933999999999997 C 16.672 24.249999999999996 17.787 23.385999999999996 17.944 22.269999999999996 C 18.058 21.455999999999996 18.273999999999997 20.534999999999997 18.669 19.689999999999998 L 18.659 19.694999999999997 C 17.988999999999997 17.824999999999996 17.137 16.616999999999997 16.243 15.845999999999997 C 15.46028253201218 15.163675336416096 14.49422018594499 14.726547773778783 13.464999999999996 14.588999999999999 C 11.924999999999997 14.372999999999998 10.512999999999998 14.778999999999996 9.624999999999998 15.038999999999996 C 10.156999999999998 17.256999999999998 9.992999999999999 19.867999999999995 8.199999999999998 22.569999999999997 z M 5.533 9.938 C 5.510000000000001 10.038 5.477 10.135 5.4350000000000005 10.228 L 2.82 16.059 C 2.551414984935238 16.658006121417262 2.675457730881517 17.360254510608335 3.133 17.831 L 7.249 22.070999999999998 C 9.352 18.97 9.045 16.051 8.084999999999999 13.770999999999997 C 7.356999999999999 12.040999999999997 6.252999999999999 10.689999999999998 5.534999999999999 9.939999999999998 z M 9.32 14.01 C 9.935 13.827 10.926 13.545 12.065000000000001 13.475999999999999 C 11.382000000000001 11.751 11.217 10.242999999999999 11.349000000000002 8.899 C 11.503000000000002 7.3469999999999995 12.049000000000001 6.052 12.584000000000001 4.948999999999999 C 12.697000000000001 4.713999999999999 12.807000000000002 4.494999999999999 12.912 4.284999999999999 C 13.061 3.987999999999999 13.200000000000001 3.7079999999999993 13.331000000000001 3.4249999999999994 C 13.548000000000002 2.954999999999999 13.71 2.539999999999999 13.791000000000002 2.1549999999999994 C 13.871000000000002 1.7749999999999995 13.871000000000002 1.4349999999999994 13.777000000000003 1.1119999999999994 C 13.682000000000002 0.7869999999999995 13.480000000000002 0.4369999999999994 13.097000000000003 0.05199999999999938 C 12.576078840741005 -0.08377520701712071 12.021798043583912 0.05150688584833929 11.622000000000005 0.4119999999999986 L 6.672000000000003 4.863999999999999 C 6.395824259837147 5.112279934086121 6.214486221168726 5.448798087716407 6.159000000000003 5.815999999999999 L 5.732000000000004 8.645999999999999 C 6.4040000000000035 9.235999999999999 8.060000000000004 10.962 9.067000000000004 13.357 C 9.157000000000004 13.567 9.242000000000004 13.786999999999999 9.320000000000004 14.01 z" stroke-linecap="round" />
</g>
<g transform="matrix(NaN NaN NaN NaN 0 0)"  >
<g style=""   >
</g>
</g>
<g transform="matrix(NaN NaN NaN NaN 0 0)"  >
<g style=""   >
</g>
</g>
</svg>