<?xml version="1.0" encoding="UTF-8" standalone="no" ?>
<!DOCTYPE svg PUBLIC "-//W3C//DTD SVG 1.1//EN" "http://www.w3.org/Graphics/SVG/1.1/DTD/svg11.dtd">
<svg xmlns="http://www.w3.org/2000/svg" xmlns:xlink="http://www.w3.org/1999/xlink" version="1.1" width="1080" height="1080" viewBox="0 0 1080 1080" xml:space="preserve">
<desc>Created with Fabric.js 5.2.4</desc>
<defs>
</defs>
<g transform="matrix(1 0 0 1 540 540)" id="c1297d57-bc53-4952-ae59-1839e5f1cf58"  >
<rect style="stroke: none; stroke-width: 1; stroke-dasharray: none; stroke-linecap: butt; stroke-dashoffset: 0; stroke-linejoin: miter; stroke-miterlimit: 4; fill: rgb(255,255,255); fill-rule: nonzero; opacity: 1; visibility: hidden;" vector-effect="non-scaling-stroke"  x="-540" y="-540" rx="0" ry="0" width="1080" height="1080" />
</g>
<g transform="matrix(1 0 0 1 540 540)" id="ec27e539-3ecb-4af8-a263-05adb6fd10df"  >
</g>
<g transform="matrix(43.75 0 0 43.75 524.12 540)" id="833a142f-e441-443e-b63f-cdcf74fba915"  >
<path style="stroke: rgb(0,0,0); stroke-width: 0; stroke-dasharray: none; stroke-linecap: butt; stroke-dashoffset: 0; stroke-linejoin: miter; stroke-miterlimit: 4; fill: rgb(136,136,136); fill-rule: nonzero; opacity: 1;" vector-effect="non-scaling-stroke"  transform=" translate(-12, -12)" d="M 12.9288 4.2939 L 16.7285 6.4868 C 16.8651 6.5638 16.87 6.777299999999999 16.7285 6.854299999999999 L 12.2135 9.4619 C 12.082433822365823 9.538879255299612 11.919966177634176 9.538879255299612 11.7889 9.4619 L 7.274 6.8543 C 7.135 6.779800000000001 7.1325 6.5613 7.274 6.486800000000001 L 11.071200000000001 4.293800000000001 L 11.071200000000001 0 L 1.3758 5.5977 L 1.3758 16.793 L 5.0935 14.6474 L 5.0935 10.2616 C 5.090999999999999 10.1051 5.2748 9.9934 5.411499999999999 10.0778 L 9.9263 12.6854 C 10.058046346602161 12.760987049241578 10.139467573902815 12.901110846787086 10.139899999999999 13.052999999999999 L 10.139899999999999 18.2657 C 10.142399999999999 18.4222 9.958599999999999 18.5339 9.822 18.4495 L 6.022399999999999 16.2566 L 2.3045999999999993 18.4023 L 12 24 L 21.6954 18.4023 L 17.9776 16.2566 L 14.177999999999999 18.4495 C 14.043899999999999 18.5315 13.855099999999998 18.4247 13.8601 18.2657 L 13.8601 13.053 C 13.8601 12.896500000000001 13.947099999999999 12.7574 14.073699999999999 12.685400000000001 L 18.5886 10.077800000000002 C 18.7226 9.995800000000001 18.9114 10.100200000000001 18.9065 10.261600000000001 L 18.9065 14.647400000000001 L 22.624200000000002 16.793 L 22.624200000000002 5.5977 L 12.9288 0 Z" stroke-linecap="round" />
</g>
<g transform="matrix(NaN NaN NaN NaN 0 0)"  >
<g style=""   >
</g>
</g>
<g transform="matrix(NaN NaN NaN NaN 0 0)"  >
<g style=""   >
</g>
</g>
</svg>