<?xml version="1.0" encoding="UTF-8" standalone="no" ?>
<!DOCTYPE svg PUBLIC "-//W3C//DTD SVG 1.1//EN" "http://www.w3.org/Graphics/SVG/1.1/DTD/svg11.dtd">
<svg xmlns="http://www.w3.org/2000/svg" xmlns:xlink="http://www.w3.org/1999/xlink" version="1.1" width="1080" height="1080" viewBox="0 0 1080 1080" xml:space="preserve">
<desc>Created with Fabric.js 5.2.4</desc>
<defs>
</defs>
<g transform="matrix(1 0 0 1 540 540)" id="dde334ee-13fd-4d34-bb96-c1a9c9588d0f"  >
<rect style="stroke: none; stroke-width: 1; stroke-dasharray: none; stroke-linecap: butt; stroke-dashoffset: 0; stroke-linejoin: miter; stroke-miterlimit: 4; fill: rgb(255,255,255); fill-rule: nonzero; opacity: 1; visibility: hidden;" vector-effect="non-scaling-stroke"  x="-540" y="-540" rx="0" ry="0" width="1080" height="1080" />
</g>
<g transform="matrix(1 0 0 1 540 540)" id="7ba17424-4916-46b2-b614-87eef43bda9f"  >
</g>
<g transform="matrix(37.14 0 0 37.14 540 540)" id="7ed79713-1840-48c1-b31f-c1b357f096a4"  >
<path style="stroke: rgb(0,0,0); stroke-width: 0; stroke-dasharray: none; stroke-linecap: butt; stroke-dashoffset: 0; stroke-linejoin: miter; stroke-miterlimit: 4; fill: rgb(136,136,136); fill-rule: nonzero; opacity: 1;" vector-effect="non-scaling-stroke"  transform=" translate(-12, -12)" d="M 12 0 C 5.3725830020304794 0 0 5.3725830020304794 0 12 C 0 18.62741699796952 5.3725830020304794 24 12 24 C 18.62741699796952 24 24 18.62741699796952 24 12 C 24 5.3725830020304794 18.62741699796952 0 12 0 z M 12 23.52 C 5.637679681949261 23.52 0.4800000000000004 18.362320318050738 0.4800000000000004 12 C 0.4800000000000004 5.637679681949262 5.637679681949261 0.4800000000000004 12 0.4800000000000004 C 18.362320318050738 0.4800000000000004 23.519999999999996 5.637679681949258 23.52 11.999999999999996 C 23.52 18.362320318050738 18.362320318050738 23.52 12 23.52 z M 19.13 13.729 C 18.924 14.725999999999999 18.003999999999998 17.285999999999998 15.07 18.671 L 13.891 17.346 L 11.903 19.346 C 9.60919771101753 19.31512924148108 7.461818121373723 18.213320761474318 6.099 16.368 C 6.310177341028275 16.434013245479317 6.5283038337400585 16.475289489484776 6.7490000000000006 16.491 C 7.075 16.497 7.4270000000000005 16.377 7.4270000000000005 15.831 L 7.4270000000000005 10.437 C 7.4362553541659855 10.156010198112519 7.31219975896467 9.887168341277267 7.092395835886563 9.71187668219168 C 6.872591912808456 9.536585023106092 6.582886834673585 9.47545645048865 6.311 9.546999999999999 C 5.391 9.758999999999999 4.655 12.056 4.655 12.056 C 4.634261654855022 9.909494778397175 5.558810849740906 7.862539935131236 7.182999999999999 6.459000000000001 C 8.239238305311627 5.5451839794566675 9.532291330762558 4.9485769400998185 10.912999999999998 4.7379999999999995 C 9.907 5.310999999999998 9.343 6.244999999999998 9.343 7.027999999999999 C 9.343 8.29 10.103 8.136999999999999 10.327 7.950999999999999 L 10.327 15.230999999999998 C 10.365180767452129 15.3223122694812 10.41492022773632 15.408348092675475 10.475 15.486999999999998 C 10.678986053325868 15.769059689847985 11.006920085791048 15.934889967628672 11.355 15.931999999999999 C 12.115 15.931999999999999 13.102 15.063999999999998 13.102 15.063999999999998 L 13.102 9.172 C 13.102 8.572000000000001 12.65 7.848000000000001 12.197000000000001 7.6000000000000005 C 12.197000000000001 7.6000000000000005 13.035 7.4510000000000005 13.681000000000001 7.946000000000001 C 13.802554788451863 7.797728582827216 13.931728796144856 7.655870822440855 14.068000000000001 7.521000000000003 C 15.576 6.041 16.997 5.619000000000001 18.18 5.409000000000001 C 18.18 5.409000000000001 16.029 7.099 16.029 9.369 C 16.029 11.056 16.072 15.17 16.072 15.17 C 16.871 15.941 18.058 14.828 19.131 13.729 Z" stroke-linecap="round" />
</g>
<g transform="matrix(NaN NaN NaN NaN 0 0)"  >
<g style=""   >
</g>
</g>
<g transform="matrix(NaN NaN NaN NaN 0 0)"  >
<g style=""   >
</g>
</g>
</svg>