<?xml version="1.0" encoding="UTF-8" standalone="no" ?>
<!DOCTYPE svg PUBLIC "-//W3C//DTD SVG 1.1//EN" "http://www.w3.org/Graphics/SVG/1.1/DTD/svg11.dtd">
<svg xmlns="http://www.w3.org/2000/svg" xmlns:xlink="http://www.w3.org/1999/xlink" version="1.1" width="1080" height="1080" viewBox="0 0 1080 1080" xml:space="preserve">
<desc>Created with Fabric.js 5.2.4</desc>
<defs>
</defs>
<g transform="matrix(1 0 0 1 540 540)" id="bd5e185e-085b-46a0-8584-b69de08b48c0"  >
<rect style="stroke: none; stroke-width: 1; stroke-dasharray: none; stroke-linecap: butt; stroke-dashoffset: 0; stroke-linejoin: miter; stroke-miterlimit: 4; fill: rgb(255,255,255); fill-rule: nonzero; opacity: 1; visibility: hidden;" vector-effect="non-scaling-stroke"  x="-540" y="-540" rx="0" ry="0" width="1080" height="1080" />
</g>
<g transform="matrix(1 0 0 1 540 540)" id="aee43d38-a121-4b6e-be82-1d867fc3e315"  >
</g>
<g transform="matrix(30.24 0 0 30.24 540 540)" id="328b6cfe-f4cb-4896-95d1-0a2d114d6e59"  >
<path style="stroke: rgb(0,0,0); stroke-width: 0; stroke-dasharray: none; stroke-linecap: butt; stroke-dashoffset: 0; stroke-linejoin: miter; stroke-miterlimit: 4; fill: rgb(136,136,136); fill-rule: nonzero; opacity: 1;" vector-effect="non-scaling-stroke"  transform=" translate(-16, -16)" d="M 23.438 0.094 C 22.933 0.089 22.438 0.271 22.063 0.615 C 22.041999999999998 0.636 22.016 0.657 21.994999999999997 0.6779999999999999 L 11.374999999999998 12.422999999999998 L 5.171999999999998 7.339999999999998 L 4.629999999999998 6.870999999999998 C 4.249999999999998 6.557999999999998 3.723999999999998 6.474999999999998 3.264999999999998 6.6679999999999975 C 3.259999999999998 6.6679999999999975 3.254999999999998 6.672999999999997 3.248999999999998 6.672999999999997 L 0.8269999999999977 7.672999999999997 C 0.7959999999999977 7.688999999999997 0.7589999999999977 7.703999999999997 0.7279999999999978 7.719999999999997 C 0.7019999999999977 7.735999999999997 0.6809999999999977 7.745999999999997 0.6599999999999977 7.755999999999997 C 0.6439999999999977 7.7659999999999965 0.6289999999999977 7.776999999999997 0.6129999999999977 7.786999999999996 C 0.5919999999999976 7.802999999999996 0.5659999999999976 7.817999999999996 0.5449999999999977 7.833999999999996 C 0.5349999999999977 7.843999999999996 0.5189999999999977 7.854999999999996 0.5089999999999977 7.864999999999996 C 0.48799999999999766 7.880999999999996 0.4669999999999977 7.8959999999999955 0.4519999999999977 7.9119999999999955 C 0.43099999999999766 7.9279999999999955 0.4159999999999977 7.942999999999995 0.3999999999999977 7.958999999999995 C 0.3899999999999977 7.968999999999995 0.37399999999999767 7.984999999999995 0.3579999999999977 8.005999999999995 C 0.3419999999999977 8.021999999999995 0.32699999999999774 8.036999999999995 0.3159999999999977 8.052999999999995 C 0.2999999999999977 8.073999999999996 0.2849999999999977 8.094999999999995 0.26899999999999774 8.115999999999996 C 0.25899999999999773 8.125999999999996 0.24799999999999775 8.141999999999996 0.23799999999999774 8.157999999999996 C 0.22199999999999775 8.178999999999997 0.20699999999999774 8.204999999999997 0.19099999999999773 8.225999999999996 C 0.18599999999999772 8.241999999999996 0.1749999999999977 8.256999999999996 0.16499999999999773 8.272999999999996 C 0.15499999999999772 8.293999999999997 0.14399999999999774 8.314999999999996 0.13399999999999773 8.340999999999996 C 0.12399999999999774 8.361999999999997 0.11799999999999773 8.376999999999995 0.10799999999999774 8.397999999999996 C 0.10299999999999773 8.418999999999997 0.09199999999999774 8.439999999999996 0.08699999999999773 8.460999999999997 C 0.07699999999999774 8.481999999999998 0.07099999999999773 8.502999999999997 0.06599999999999773 8.523999999999997 C 0.055999999999997725 8.544999999999998 0.04999999999999773 8.570999999999998 0.04499999999999772 8.596999999999998 C 0.039999999999997725 8.612999999999998 0.03499999999999772 8.627999999999998 0.028999999999997722 8.648999999999997 C 0.028999999999997722 8.669999999999998 0.02399999999999772 8.695999999999998 0.01899999999999772 8.721999999999998 C 0.01899999999999772 8.742999999999999 0.013999999999997719 8.763999999999998 0.013999999999997719 8.789999999999997 C 0.008999999999997718 8.825999999999997 0.008999999999997718 8.862999999999998 0.008999999999997718 8.898999999999997 L 0.008999999999997718 23.107 C 0.008999999999997718 23.643 0.33199999999999774 24.128 0.8269999999999976 24.331 L 3.248999999999998 25.352 C 3.712999999999998 25.545 4.248999999999998 25.456 4.628999999999998 25.133 L 5.170999999999998 24.663999999999998 L 11.373999999999999 19.580999999999996 L 21.994 31.325999999999993 C 22.025 31.356999999999992 22.062 31.388999999999992 22.093 31.414999999999992 C 22.119 31.435999999999993 22.145 31.461999999999993 22.171 31.482999999999993 C 22.192 31.503999999999994 22.218 31.518999999999995 22.244 31.539999999999992 C 22.275 31.560999999999993 22.301 31.575999999999993 22.326999999999998 31.59699999999999 C 22.357999999999997 31.61299999999999 22.389999999999997 31.632999999999992 22.415999999999997 31.64899999999999 C 22.446999999999996 31.66499999999999 22.472999999999995 31.67999999999999 22.504999999999995 31.69599999999999 C 22.536999999999995 31.711999999999993 22.561999999999994 31.72199999999999 22.593999999999994 31.737999999999992 C 22.624999999999993 31.75399999999999 22.656999999999993 31.763999999999992 22.687999999999995 31.773999999999994 C 22.718999999999994 31.789999999999992 22.755999999999997 31.799999999999994 22.786999999999995 31.809999999999995 C 22.812999999999995 31.819999999999997 22.843999999999994 31.825999999999993 22.875999999999994 31.835999999999995 C 22.907999999999994 31.845999999999997 22.943999999999996 31.856999999999996 22.979999999999993 31.861999999999995 C 23.010999999999992 31.866999999999994 23.042999999999992 31.877999999999993 23.073999999999995 31.882999999999996 C 23.104999999999997 31.887999999999998 23.136999999999993 31.892999999999997 23.172999999999995 31.892999999999997 C 23.203999999999994 31.897999999999996 23.240999999999996 31.903 23.271999999999995 31.903 C 23.302999999999994 31.903 23.334999999999994 31.907999999999998 23.370999999999995 31.907999999999998 C 23.401999999999994 31.907999999999998 23.438999999999997 31.907999999999998 23.469999999999995 31.907999999999998 C 23.505999999999997 31.907999999999998 23.542999999999996 31.903 23.573999999999995 31.903 C 23.604999999999993 31.898 23.636999999999993 31.892999999999997 23.662999999999993 31.892999999999997 C 23.704999999999995 31.887999999999998 23.740999999999993 31.882999999999996 23.782999999999994 31.871999999999996 C 23.808999999999994 31.866999999999997 23.834999999999994 31.861999999999995 23.860999999999994 31.855999999999998 C 23.896999999999995 31.845999999999997 23.933999999999994 31.84 23.969999999999995 31.825 C 23.995999999999995 31.82 24.026999999999994 31.809 24.058999999999994 31.799 C 24.090999999999994 31.788999999999998 24.121999999999993 31.778 24.152999999999995 31.762999999999998 C 24.194999999999997 31.747 24.230999999999995 31.732 24.272999999999996 31.715999999999998 L 30.861999999999995 28.543999999999997 C 31.101999999999993 28.429 31.319999999999993 28.267999999999997 31.491999999999994 28.064999999999998 C 31.538999999999994 28.017999999999997 31.574999999999992 27.965999999999998 31.616999999999994 27.913999999999998 C 31.616999999999994 27.913999999999998 31.616999999999994 27.909 31.621999999999993 27.903999999999996 C 31.657999999999994 27.851999999999997 31.694999999999993 27.794999999999995 31.725999999999992 27.736999999999995 C 31.75699999999999 27.684999999999995 31.78299999999999 27.632999999999996 31.80899999999999 27.580999999999996 C 31.81399999999999 27.570999999999994 31.81399999999999 27.564999999999998 31.818999999999992 27.554999999999996 C 31.839999999999993 27.507999999999996 31.860999999999994 27.460999999999995 31.87599999999999 27.413999999999998 C 31.88099999999999 27.398 31.885999999999992 27.383 31.89199999999999 27.362 C 31.907999999999987 27.314999999999998 31.922999999999988 27.267999999999997 31.93399999999999 27.221 C 31.93899999999999 27.205000000000002 31.943999999999992 27.19 31.943999999999992 27.174 C 31.953999999999994 27.127 31.95999999999999 27.08 31.96999999999999 27.038999999999998 C 31.96999999999999 27.017999999999997 31.97499999999999 26.991999999999997 31.979999999999993 26.970999999999997 C 31.979999999999993 26.928999999999995 31.984999999999992 26.892999999999997 31.984999999999992 26.850999999999996 C 31.98999999999999 26.814999999999994 31.98999999999999 26.777999999999995 31.98999999999999 26.746999999999996 L 31.98999999999999 5.262999999999995 C 31.98999999999999 5.246999999999995 31.98999999999999 5.231999999999995 31.98999999999999 5.215999999999995 C 31.98999999999999 5.152999999999995 31.984999999999992 5.085999999999995 31.97999999999999 5.0179999999999945 C 31.89699999999999 4.340999999999994 31.47499999999999 3.7519999999999945 30.85999999999999 3.4609999999999945 L 24.270999999999987 0.2939999999999947 C 24.010999999999985 0.1689999999999947 23.728999999999985 0.1009999999999947 23.442999999999987 0.0959999999999947 z M 23.995 9.229 L 23.995 22.771 L 15.735000000000001 16 z M 4.005 11.432 L 8.135 16 L 4.005 20.567999999999998 z" stroke-linecap="round" />
</g>
<g transform="matrix(NaN NaN NaN NaN 0 0)"  >
<g style=""   >
</g>
</g>
<g transform="matrix(NaN NaN NaN NaN 0 0)"  >
<g style=""   >
</g>
</g>
</svg>